<svg xmlns="http://www.w3.org/2000/svg" width="144" height="27" viewBox="0 0 144 27" fill="none">
<path fill-rule="evenodd" clip-rule="evenodd" d="M44.3455 0L34.9035 12.132L30.24 0H19.2688L8.9028 11.2486L10.9061 0H4.74012L0 26.8741H6.16598L8.40102 14.0896L15.4537 26.8741H25.4999L28.2741 11.0568L33.0142 22.6517H33.7075L42.9177 11.1341L40.1426 26.875H46.3085L51.0506 0H44.3455ZM19.9363 23.4616L14.2979 13.2062L23.4928 3.29701L19.9363 23.4616Z" fill="black"/>
<path fill-rule="evenodd" clip-rule="evenodd" d="M68.1572 13.0917C69.9814 11.8124 71.0597 10.0723 71.3939 7.87047C71.753 5.56657 71.2014 3.68529 69.7372 2.22663C68.2731 0.742209 66.3196 0 63.8796 0H53.7061L48.966 26.875H59.9103C62.9412 26.875 65.3639 26.1843 67.1747 24.802C68.9855 23.4196 70.0456 21.5517 70.3539 19.1963C70.6872 16.5347 69.9556 14.4998 68.1572 13.0917ZM64.3038 18.5438C64.1745 19.3117 63.8221 19.9328 63.2438 20.406C62.6654 20.8801 61.9529 21.1157 61.1054 21.1157H56.1345L57.0596 15.9708H62.0305C62.8779 15.9708 63.5014 16.2074 63.8997 16.6806C64.2981 17.1548 64.4331 17.7749 64.3048 18.5428L64.3038 18.5438ZM65.1906 8.13949C65.0613 8.85594 64.728 9.43216 64.1889 9.86718C63.6498 10.3032 62.9938 10.5197 62.2239 10.5197H58.0229L58.8704 5.75927H63.0714C63.8672 5.75927 64.4522 5.98346 64.8247 6.43089C65.1973 6.87926 65.3189 7.44785 65.1906 8.13949Z" fill="black"/>
<path d="M70.2677 26.8741L75.0078 0H81.1738L76.4337 26.8741H70.2677Z" fill="black"/>
<path fill-rule="evenodd" clip-rule="evenodd" d="M112.988 0L100.957 23.2412L105.056 0H98.8904L96.2311 15.0884L88.4851 0H83.8609L79.1208 26.875H85.2867L87.9843 11.7866L95.692 26.875H105.821L107.979 22.6517H117.998L118.537 26.875H125.282L120.85 0H112.988ZM110.869 16.8924L116.033 6.71804L117.305 16.8924H110.869Z" fill="black"/>
<path d="M123.704 5.91191L122.72 0H144L142.959 5.91191H136.022L132.323 26.8741H126.157L129.856 5.91191H123.704Z" fill="black"/>
<path d="M139.659 22.9799C139.481 22.9799 139.319 23.0228 139.172 23.1096V23.1058C139.024 23.1926 138.908 23.308 138.82 23.454C138.734 23.6 138.69 23.764 138.69 23.9415C138.69 24.1189 138.734 24.2802 138.822 24.4261C138.91 24.5721 139.027 24.6885 139.174 24.7762C139.32 24.864 139.482 24.9079 139.66 24.9079C139.866 24.9079 140.04 24.8506 140.186 24.7362C140.331 24.6217 140.422 24.4748 140.459 24.2954H141.213C141.18 24.5482 141.093 24.7762 140.949 24.9785C140.805 25.1817 140.623 25.341 140.4 25.4574C140.178 25.5747 139.931 25.6329 139.66 25.6329C139.348 25.6329 139.065 25.5576 138.808 25.4059C138.551 25.2542 138.347 25.051 138.194 24.7953C138.042 24.5396 137.965 24.2534 137.965 23.9434C137.965 23.6333 138.041 23.35 138.194 23.0934C138.346 22.8377 138.551 22.6336 138.808 22.4819C139.065 22.3302 139.348 22.2548 139.66 22.2548C139.931 22.2548 140.182 22.314 140.412 22.4304C140.642 22.5477 140.832 22.707 140.984 22.9093C141.135 23.1125 141.227 23.3395 141.259 23.5923H140.505C140.469 23.413 140.372 23.2661 140.21 23.1516C140.048 23.0371 139.864 22.9799 139.659 22.9799Z" fill="black"/>
<path fill-rule="evenodd" clip-rule="evenodd" d="M141.801 21.7864C141.522 21.5059 141.196 21.2865 140.826 21.1282C140.455 20.9698 140.058 20.8906 139.633 20.8906C139.209 20.8906 138.816 20.9698 138.446 21.1282C138.076 21.2865 137.751 21.5059 137.47 21.7864C137.19 22.0669 136.969 22.3912 136.809 22.7595C136.649 23.1277 136.569 23.5236 136.567 23.9453C136.565 24.3679 136.644 24.7629 136.804 25.1311C136.964 25.4994 137.184 25.8237 137.465 26.1042C137.747 26.3847 138.073 26.6041 138.444 26.7625C138.815 26.9208 139.211 27 139.633 27C140.056 27 140.455 26.9208 140.827 26.7625C141.198 26.6041 141.525 26.3847 141.805 26.1042C142.086 25.8237 142.306 25.4994 142.464 25.1311C142.623 24.7629 142.702 24.367 142.7 23.9453C142.698 23.5227 142.617 23.1277 142.458 22.7595C142.299 22.3912 142.08 22.0669 141.8 21.7864H141.801ZM141.753 24.8354C141.636 25.112 141.471 25.3544 141.261 25.5633C141.052 25.7713 140.807 25.9353 140.528 26.0536C140.249 26.1719 139.951 26.2311 139.633 26.2311C139.315 26.2311 139.019 26.1719 138.741 26.0536C138.463 25.9353 138.219 25.7713 138.009 25.5614C137.8 25.3525 137.635 25.1092 137.515 24.8325C137.396 24.5559 137.336 24.2611 137.336 23.9491C137.338 23.6333 137.399 23.3367 137.519 23.06C137.639 22.7833 137.804 22.5401 138.014 22.3292C138.224 22.1194 138.467 21.9553 138.745 21.8379C139.021 21.7206 139.317 21.6614 139.633 21.6614C139.949 21.6614 140.248 21.7206 140.525 21.8379C140.802 21.9553 141.045 22.1194 141.256 22.3283C141.465 22.5372 141.63 22.7805 141.75 23.059C141.868 23.3367 141.928 23.6334 141.928 23.9501C141.93 24.2649 141.871 24.5597 141.753 24.8373V24.8354Z" fill="black"/>
</svg>